<?xml version="1.0" encoding="utf-8"?>
<!-- Generator: Adobe Illustrator 24.3.0, SVG Export Plug-In . SVG Version: 6.00 Build 0)  -->
<svg version="1.1" id="Layer_1" xmlns="http://www.w3.org/2000/svg" xmlns:xlink="http://www.w3.org/1999/xlink" x="0px" y="0px"
	 viewBox="0 0 419.4 168.1" style="enable-background:new 0 0 419.4 168.1;" xml:space="preserve">
<style type="text/css">
	.st0{fill:#FFCE00;}
	.st1{fill:#FFFFFF;}
</style>
<g id="logo">
	<path class="st0" d="M129.1,2c1.3,1.3,2,3.5,2,6.4v27.3c0,3-0.7,5.1-2,6.4c-1.3,1.3-3.5,2-6.4,2H58.3v18h45.5c3,0,5.1,0.7,6.4,2
		c1.3,1.3,2,3.5,2,6.4v25c0,3-0.7,5.1-2,6.4s-3.5,2-6.4,2H58.3V124h64.4c3,0,5.1,0.7,6.4,2c1.3,1.3,2,3.5,2,6.4v27.3
		c0,3-0.7,5.1-2,6.4c-1.3,1.3-3.5,2-6.4,2H8.4c-3,0-5.1-0.7-6.4-2s-2-3.5-2-6.4v-32.4c0.9-1.1,1.6-2.3,2.1-3.7
		c0.2,0,0.5,0.1,0.7,0.1c5.3,0.2,9.9-5.1,10.1-11.9c0.1-2.5-0.4-4.9-1.4-6.9c4.9-0.5,8.8-5.5,9.1-11.9c0.2-4.4-1.5-8.3-4.1-10.5
		c2.8-2.1,4.7-5.8,4.9-10.2c0.2-6.2-3.2-11.5-7.9-12.5c0-0.3,0.1-0.6,0.1-1c0.2-6.8-3.9-12.4-9.2-12.6c-0.1,0-0.2,0-0.4,0
		c-0.6-3-2-5.5-3.9-7.2V8.4c0-3,0.7-5.1,2-6.4s3.5-2,6.4-2h114.3C125.7,0,127.8,0.7,129.1,2z"/>
	<path class="st1" d="M417.5,2c-1.3-1.3-3.5-2-6.4-2H287.8c-3,0-5.1,0.7-6.4,2s-2,3.5-2,6.4v28.2c0,3,0.7,5.1,2,6.4
		c1.3,1.3,3.5,2,6.4,2h34.3v114.6c0,3,0.7,5.1,2,6.4c1.3,1.3,3.5,2,6.4,2h37.8c3,0,5.1-0.7,6.4-2s2-3.5,2-6.4V45.1H411
		c3,0,5.1-0.7,6.4-2s2-3.5,2-6.4V8.4C419.4,5.5,418.8,3.3,417.5,2z"/>
	<path class="st1" d="M282.8,81.9c-1.5-6-3.8-13.1-6.9-21.2l-20.3-53c-0.9-2.6-2.4-4.6-4.3-5.8c-2-1.3-4.4-1.9-7.4-1.9h-62.8
		c-3.1,0-5.7,0.7-7.6,1.9c-1.9,1.2-3.4,3.2-4.3,5.8l-20.3,53c-3.1,8-5.4,15.1-6.9,21.2s-2.2,11.4-2.2,16.1v61.7c0,2.9,0.7,5.1,2,6.4
		c1.3,1.3,3.4,2,6.4,2h34.3c2.9,0,5.1-0.7,6.4-2s2-3.4,2-6.4V127h41.3v32.6c0,2.9,0.7,5.1,2.2,6.4c1.5,1.3,3.8,2,6.9,2h35.3
		c2.9,0,5.1-0.7,6.4-2c1.3-1.3,2-3.4,2-6.4V98C285,93.4,284.2,88,282.8,81.9z M193.1,84.5l11-35.5c0.6-1.4,1.3-2.4,2-3
		c0.7-0.6,1.6-0.9,2.5-0.9h5.8c1,0,1.8,0.3,2.5,0.9c0.7,0.6,1.4,1.6,2,3l11,35.5H193.1z"/>
</g>
</svg>
