<?xml version="1.0" encoding="utf-8"?>
<!-- Generator: Adobe Illustrator 24.3.0, SVG Export Plug-In . SVG Version: 6.00 Build 0)  -->
<svg version="1.1" id="Layer_1" xmlns="http://www.w3.org/2000/svg" xmlns:xlink="http://www.w3.org/1999/xlink" x="0px" y="0px"
	 viewBox="0 0 438.8 196.7" style="enable-background:new 0 0 438.8 196.7;" xml:space="preserve">
<style type="text/css">
	.st0{fill:#FFCE00;}
	.st1{fill:#FFFFFF;}
</style>
<g id="logo">
	<path class="st0" d="M147.4,21.8c1.2,1.2,1.6,3.4,1.3,6.3l-3,27.3c-0.3,3-1.3,5.2-2.7,6.6s-3.7,2.2-6.7,2.5l-64.8,4.5l-2,18
		l45.8-3.2c3-0.2,5.1,0.3,6.2,1.6s1.6,3.4,1.3,6.3l-2.8,25c-0.3,3-1.3,5.2-2.7,6.6c-1.5,1.4-3.7,2.2-6.7,2.5l-45.8,3.2L62.7,149
		l64.8-4.5c3-0.2,5.1,0.3,6.2,1.6s1.6,3.4,1.3,6.3l-3,27.3c-0.3,3-1.3,5.2-2.7,6.6c-1.5,1.4-3.7,2.2-6.7,2.5l-115,8
		c-3,0.2-5.1-0.3-6.2-1.6s-1.6-3.4-1.3-6.3l3.6-32.5c1-1.2,1.9-2.4,2.5-3.9c0.2,0,0.5,0.1,0.7,0.1c5.3-0.2,10.5-5.8,11.5-12.6
		c0.4-2.5,0.1-4.9-0.6-6.8c5-0.8,9.5-6.1,10.5-12.6c0.7-4.4-0.6-8.2-3-10.2c3-2.3,5.4-6.1,6.1-10.6c0.9-6.2-2-11.3-6.6-12
		c0-0.3,0.2-0.6,0.2-1c1-6.8-2.6-12.1-7.9-12c-0.1,0-0.2,0-0.4,0c-0.3-3-1.4-5.4-3.1-6.9l3.4-30.7c0.3-3,1.3-5.2,2.7-6.6
		c1.5-1.4,3.7-2.2,6.7-2.5l115-8C144.2,20,146.2,20.6,147.4,21.8z"/>
	<path class="st1" d="M437.5,1.6c-1.2-1.2-3.3-1.8-6.2-1.6l-124,8.6c-3,0.2-5.2,1.1-6.7,2.5s-2.4,3.6-2.7,6.6l-3.1,28.2
		c-0.3,3,0.1,5.1,1.3,6.3c1.2,1.2,3.3,1.8,6.2,1.6l34.5-2.4l-12.6,114.8c-0.3,3,0.1,5.1,1.3,6.3c1.2,1.2,3.3,1.8,6.2,1.6l38-2.6
		c3-0.2,5.2-1.1,6.7-2.5s2.4-3.6,2.7-6.6l12.6-114.7l34.5-2.4c3-0.2,5.2-1.1,6.7-2.5c1.5-1.4,2.4-3.6,2.7-6.6l3.1-28.4
		C439,5,438.6,2.8,437.5,1.6z"/>
	<path class="st1" d="M293.2,91.1c-0.8-5.9-2.4-12.9-4.6-20.8L274,18.6c-0.6-2.5-1.9-4.4-3.7-5.5c-1.9-1.2-4.2-1.6-7.2-1.4
		l-63.2,4.4c-3.1,0.2-5.8,1.1-7.9,2.4c-2,1.3-3.8,3.4-5,6.1l-26.3,54.5c-4,8.2-7.1,15.5-9.3,21.7s-3.5,11.6-4,16.3l-6.8,61.8
		c-0.3,2.9,0.1,5.1,1.3,6.3c1.2,1.2,3.2,1.8,6.2,1.6l34.5-2.4c2.9-0.2,5.2-1.1,6.7-2.5c1.5-1.4,2.4-3.5,2.7-6.6l3.6-32.8l41.5-2.9
		l-3.6,32.7c-0.3,2.9,0.1,5.1,1.5,6.3c1.4,1.2,3.6,1.7,6.7,1.5l35.5-2.5c2.9-0.2,5.2-1.1,6.7-2.5c1.5-1.4,2.4-3.5,2.7-6.6l6.8-61.7
		C294.1,102.4,293.9,97.1,293.2,91.1z M202.6,100l15-36.3c0.8-1.4,1.6-2.5,2.3-3.1c0.8-0.7,1.7-1,2.6-1.1l5.8-0.4
		c1-0.1,1.8,0.2,2.4,0.7c0.6,0.6,1.2,1.5,1.7,2.9l7.2,34.8L202.6,100z"/>
</g>
</svg>
