<?xml version="1.0" encoding="utf-8"?>
<!-- Generator: Adobe Illustrator 24.3.0, SVG Export Plug-In . SVG Version: 6.00 Build 0)  -->
<svg version="1.1" id="Layer_1" xmlns="http://www.w3.org/2000/svg" xmlns:xlink="http://www.w3.org/1999/xlink" x="0px" y="0px"
	 viewBox="0 0 131.1 168.1" style="enable-background:new 0 0 131.1 168.1;" xml:space="preserve">
<style type="text/css">
	.st0{fill:#FFFFFF;}
</style>
<g id="logo">
	<path class="st0" d="M129.1,2c1.3,1.3,2,3.5,2,6.4v27.3c0,3-0.7,5.1-2,6.4c-1.3,1.3-3.5,2-6.4,2H58.3v18h45.5c3,0,5.1,0.7,6.4,2
		c1.3,1.3,2,3.5,2,6.4v25c0,3-0.7,5.1-2,6.4c-1.3,1.3-3.5,2-6.4,2H58.3V124h64.4c3,0,5.1,0.7,6.4,2c1.3,1.3,2,3.5,2,6.4v27.3
		c0,3-0.7,5.1-2,6.4c-1.3,1.3-3.5,2-6.4,2H8.4c-3,0-5.1-0.7-6.4-2c-1.3-1.3-2-3.5-2-6.4v-32.4c0.9-1.1,1.6-2.3,2.1-3.7
		c0.2,0,0.5,0.1,0.7,0.1c5.3,0.2,9.9-5.1,10.1-11.9c0.1-2.5-0.4-4.9-1.4-6.9c4.9-0.5,8.8-5.5,9.1-11.9c0.2-4.4-1.5-8.3-4.1-10.5
		c2.8-2.1,4.7-5.8,4.9-10.2c0.2-6.2-3.2-11.5-7.9-12.5c0-0.3,0.1-0.6,0.1-1c0.2-6.8-3.9-12.4-9.2-12.6c-0.1,0-0.2,0-0.4,0
		c-0.6-3-2-5.5-3.9-7.2V8.4c0-3,0.7-5.1,2-6.4c1.3-1.3,3.5-2,6.4-2h114.3C125.7,0,127.8,0.7,129.1,2z"/>
</g>
</svg>
